<svg xmlns="http://www.w3.org/2000/svg" viewBox="0 0 1500 301" width="1500" height="301">
	<title>img_66fa8cd3dd2e29</title>
	<style>
		.s0 { fill: #0167a3 }
		.s1 { fill: #a4d8f4 }
		.s2 { fill: #1ab7eb }
		.s3 { fill: #000000 }
	</style>
	<g id="Background">
		<path id="Path 0" fill-rule="evenodd" class="s0" d="m162 87l2 2.3c1.9 2 2 3.5 2 17.4 0 14-0.2 15.5-2 17.3-2 2-3.3 2-60.3 2-49 0-58.5 0.2-60.2 1.4-1.9 1.3-2 2.8-2.3 19.8-0.2 10.1-0.1 19.3 0.2 20.6 0.3 1.2 1.3 2.9 2.1 3.7 1.3 1.3 9.3 1.5 118.5 1.5l2 2.2c1.9 2.1 2 3.6 2 17.5 0 14-0.2 15.5-2 17.3-2 2-3.3 2-76 2-70.8 0-74.2-0.1-77.8-1.9-2-1-4.7-3-5.9-4.3-1.2-1.2-2.6-3.5-3.2-5.1-0.7-1.8-1.1-19.2-1.1-51.2 0-38.8 0.3-49.1 1.4-51.8 0.7-1.7 2.4-4.2 3.7-5.3 1.3-1.2 3.8-2.9 5.4-3.7 2.7-1.4 11.5-1.6 151.5-1.7zm655.3 0c65.5 0 68.9 0.1 72.5 1.9 2 1 4.7 3 5.9 4.3 1.2 1.2 2.6 3.5 3.2 5 0.7 1.9 1.1 19.3 1.1 51.3 0 32-0.4 49.4-1.1 51.3-0.6 1.5-2 3.8-3.2 5-1.2 1.3-3.9 3.3-5.9 4.3-3.6 1.8-6.9 1.9-141.3 1.9l-4.4-2.3c-2.6-1.3-5.5-3.8-9.6-10.1v-100.2l2.8-4.1c1.6-2.2 4.7-5 7-6.2 4.2-2.1 4.6-2.1 73-2.1zm-39.8 41.2c-1.5 1.9-1.7 5.1-1.6 21.5 0.1 17.9 0.2 19.4 2.1 21.3 1.9 1.9 3.3 2 39.4 2 31.9 0 37.7-0.2 39-1.5 0.9-0.8 1.9-2.5 2.2-3.7 0.3-1.3 0.4-10.5 0.2-20.6-0.3-17-0.4-18.5-2.3-19.8-1.7-1.2-8.5-1.4-39.7-1.4h-37.7z"/>
		<path id="Path 1" class="s1" d="m443.5 0.8c-1.7 1.7-1.8 3.6-1.7 19.8 0.1 16.9 0.3 18 2.3 19.9 2 1.9 3.5 2 26.4 2 20.1 0 24.5-0.3 25.9-1.5 1.5-1.3 1.7-3.9 1.7-20.5-0.1-14-0.4-19.3-1.3-20.3-1-0.9-7.5-1.2-26.4-1.2-23 0-25.3 0.2-26.9 1.8z"/>
		<path id="Path 2" class="s2" d="m201.4 257c-1.1 0.5-2.6 2.2-3.3 3.7-0.9 2-1.1 7.6-0.9 19.4 0.2 13 0.6 17 1.8 18.3 1.3 1.5 4.2 1.7 26.7 1.6 25.1 0 25.3 0 26.8-2.2 1.2-1.8 1.5-5.9 1.6-19.3 0-15.4-0.2-17.2-2-19.5l-1.9-2.5c-36.2-0.3-47.6 0-48.8 0.5z"/>
		<path id="Path 3" class="s0" d="m312.3 46c-2.4 1.1-5.1 3.3-6.2 4.8-1 1.5-2.3 4.5-3 6.7-0.6 2.2-1.1 9.7-1.1 16.8v12.7c-12.7 0-14.4 0.4-16 2-1.8 1.8-2 3.3-2 17.5 0 14.2 0.2 15.7 2 17.5 1.6 1.6 3.3 2 9 2h7c0 56.6 0.4 69.9 1.1 72.5 0.7 2.2 2.1 5.3 3.3 6.8 1.1 1.5 3.9 3.7 6.1 4.7 3.8 1.9 6.6 2 50 2 39.4 0 46.3-0.2 48.2-1.5 2.2-1.5 2.3-2 2.3-18 0-16-0.1-16.5-2.3-18-1.8-1.3-7-1.5-31-1.5-17.1 0-29.5-0.4-30.7-1-1.9-1-2-2-2-23.5v-22.5c38.4 0.1 40.7-0.1 42.2-1.7 1.5-1.5 1.8-4.1 1.8-17.8 0.1-14.1-0.1-16.2-1.7-17.7-1.6-1.5-4.3-1.8-22.1-1.8h-20.2c-0.5-27.4-0.8-30-2.5-32.9-1.1-1.9-3.7-4.8-5.8-6.5-3.6-2.9-4.5-3.1-13-3.4-7.7-0.2-9.9 0-13.4 1.8zm231.7 42.6c-1.9 0.8-4.3 2.3-5.4 3.2-1 0.9-2.7 3.4-3.7 5.4-1.8 3.6-1.9 6.4-1.7 53.6l0.3 49.9c4.7 5.9 7.8 8.5 10 9.5 3.7 1.6 9.1 1.8 77.8 1.8 72.4 0 73.7 0 75.7-2 1.8-1.8 2-3.3 2-17.5 0-14.2-0.2-15.7-2-17.5-2-2-3.3-2-60.3-2-54.5 0.1-58.3 0-59.9-1.7-1.5-1.6-1.8-4.3-1.8-21.8-0.1-17.9 0.1-20.2 1.7-21.7 1.7-1.6 6.3-1.8 60-1.8 56.9 0 58.3 0 60.3-2 1.8-1.8 2-3.3 2-17.5 0-14.2-0.2-15.7-2-17.5-2-2-3.3-2-75.8-2-63.8 0.1-74.2 0.3-77.2 1.6zm-343.6 83.2c-0.6 0.4-1.6 2-2.3 3.5-0.6 1.6-1.1 8.6-1.1 17.2 0 8 0.5 15.7 1.1 17.2 0.6 1.6 1.6 3.1 2.2 3.5 0.7 0.4 11.9 0.8 25 0.8 13.8 0 24.5-0.4 25.7-1 1.9-0.9 2-2 2-20 0-15.6-0.3-19.3-1.5-20.5-1.3-1.3-5.5-1.5-25.7-1.5-13.4 0-24.8 0.4-25.4 0.8zm243.1 1.4c-1.4 1.9-1.7 4.9-1.6 19.3 0.1 13.4 0.4 17.5 1.6 19.2 1.5 2.3 1.7 2.3 26.3 2.3 22.4 0.1 24.9-0.1 26.4-1.7 1.5-1.6 1.8-4.2 1.8-19.8 0.1-16-0.1-18.2-1.7-19.7-1.6-1.6-4.5-1.8-26.5-1.8-24.4 0-24.7 0-26.3 2.2z"/>
		<path id="Path 4" class="s1" d="m201.4 85c-1.1 0.5-2.6 2.2-3.3 3.7-0.9 2-1.1 7.6-0.9 19.4 0.2 13 0.6 17 1.8 18.3 1.3 1.5 4.2 1.7 26.7 1.6 25.1 0 25.3 0 26.8-2.2 1.2-1.8 1.5-5.9 1.6-19.3 0-15.4-0.2-17.2-2-19.5l-1.9-2.5c-36.2-0.3-47.6 0-48.8 0.5z"/>
		<path id="Path 5" class="s2" d="m447 84.7c-0.8 0.3-2.3 1.3-3.3 2.2-1.6 1.4-1.8 3.6-1.8 19.6 0 16 0.2 18.2 1.8 19.7 1.6 1.6 4.5 1.8 26.8 1.8 19.2 0.1 25.3-0.2 26.2-1.2 0.9-1 1.2-6.4 1-20.8l-0.2-19.4c-4.3-2.2-11.1-2.6-27-2.5-12.1 0-22.7 0.3-23.5 0.6z"/>
	</g>
	<path id="Blog" class="s3" aria-label="Blog"  d="m939.6 212v-165.6h126q9 0 16.3 4.6 7.6 4.4 12.2 12 4.6 7.3 4.6 16.5v31.8q0 2.9-0.4 5.7-0.5 2.5-1.4 5.1 3.7 4.8 6 10.5 2.3 5.6 2.3 11.3v35q0 9.2-4.6 16.8-4.6 7.3-12.2 11.9-7.4 4.4-16.6 4.4zm34.5-33.4h96.2q0.6 0 0.9-0.2 0.4-0.4 0.4-1.1v-31.5q0-0.5-0.4-1-0.3-0.4-0.9-0.4h-96.2q-0.7 0-1.1 0.4-0.3 0.5-0.3 1v31.5q0 0.7 0.3 1.1 0.4 0.2 1.1 0.2zm0-67.6h89.7q0.5 0 0.9-0.2 0.5-0.5 0.5-0.9v-28.8q0-0.7-0.5-0.9-0.4-0.5-0.9-0.5h-89.7q-0.7 0-1.1 0.5-0.3 0.2-0.3 0.9v28.8q0 0.4 0.3 0.9 0.4 0.2 1.1 0.2zm187.7 101q-8.7 0-16.1-4.4-7.4-4.6-12-11.9-4.3-7.4-4.3-16.1v-144.9h32.9v143.3q0 0.4 0.4 0.9 0.5 0.4 0.9 0.4h26.3v32.7zm77.7 0q-8.7 0-16.1-4.4-7.4-4.6-12-11.9-4.3-7.4-4.3-16.1v-68.6q0-8.7 4.3-16.1 4.6-7.3 12-11.7 7.4-4.6 16.1-4.6h70.4q8.9 0 16.3 4.6 7.4 4.4 11.7 11.7 4.4 7.4 4.4 16.1v68.6q0 8.7-4.4 16.1-4.3 7.3-11.7 11.9-7.4 4.4-16.3 4.4zm1.6-32.7h67.1q0.5 0 1-0.4 0.4-0.5 0.4-0.9v-65.4q0-0.4-0.4-0.9-0.5-0.4-1-0.4h-67.1q-0.5 0-0.9 0.4-0.5 0.5-0.5 0.9v65.4q0 0.4 0.5 0.9 0.4 0.4 0.9 0.4zm225.8 85.4h-81.4v-32.9h79.8q0.5 0 1-0.5 0.4-0.4 0.4-0.9v-18.4h-70.1q-9 0-16.4-4.4-7.3-4.6-11.9-11.9-4.4-7.4-4.4-16.1v-68.6q0-8.7 4.4-16.1 4.6-7.3 11.9-11.7 7.6-4.6 16.4-4.6h70.3q9 0 16.4 4.6 7.3 4.4 11.7 11.7 4.4 7.4 4.4 16.1v121q0 9.2-4.4 16.6-4.1 7.3-11.7 11.7-7.4 4.4-16.4 4.4zm-69-85.4h67.4q0.5 0 1-0.4 0.4-0.5 0.4-0.9v-65.4q0-0.4-0.4-0.9-0.5-0.4-1-0.4h-67.4q-0.4 0-0.9 0.4-0.4 0.5-0.4 0.9v65.4q0 0.4 0.4 0.9 0.5 0.4 0.9 0.4z"/>
</svg>
